<svg xmlns="http://www.w3.org/2000/svg" width="12.641" height="13.337" viewBox="0 0 12.641 13.337">
  <path id="Trazado_1002" data-name="Trazado 1002" d="M15.433,15.066l-2.387-2.511a6.075,6.075,0,0,0,1.186-3.629A5.777,5.777,0,0,0,8.616,3,5.777,5.777,0,0,0,3,8.926a5.777,5.777,0,0,0,5.616,5.926,5.378,5.378,0,0,0,3.44-1.252l2.38,2.518a.677.677,0,0,0,1,0,.77.77,0,0,0,0-1.052ZM4.4,8.926A4.333,4.333,0,0,1,8.616,4.481a4.333,4.333,0,0,1,4.212,4.444A4.333,4.333,0,0,1,8.616,13.37,4.333,4.333,0,0,1,4.4,8.926Z" transform="translate(-3 -3)" opacity="0.34"/>
</svg>
