<svg xmlns="http://www.w3.org/2000/svg" width="40" height="48" viewBox="0 0 40 48">
  <g id="Group_2035" data-name="Group 2035" transform="translate(-809 -20)">
    <g id="Rectangle_3658" data-name="Rectangle 3658" transform="translate(809 20)" fill="#ff7212" stroke="#ff7212" stroke-width="1">
      <rect width="40" height="48" rx="4" stroke="none"/>
      <rect x="0.5" y="0.5" width="39" height="47" rx="3.5" fill="none"/>
    </g>
    <g id="Group_2017" data-name="Group 2017" transform="translate(817 33)">
      <g id="Path_1369" data-name="Path 1369" transform="translate(0)" fill="none">
        <path d="M5.75,0h11.5A5.75,5.75,0,0,1,23,5.75v11.5A5.75,5.75,0,0,1,17.251,23H5.75A5.75,5.75,0,0,1,0,17.25V5.75A5.75,5.75,0,0,1,5.75,0Z" stroke="none"/>
        <path d="M 5.750373840332031 2.149995803833008 C 3.76512336730957 2.149995803833008 2.150003433227539 3.764884948730469 2.150003433227539 5.749855041503906 L 2.150003433227539 17.24955558776855 C 2.150003433227539 19.23451614379883 3.76512336730957 20.84940528869629 5.750373840332031 20.84940528869629 L 17.25111389160156 20.84940528869629 C 19.23636245727539 20.84940528869629 20.85148239135742 19.23451614379883 20.85148239135742 17.24955558776855 L 20.85148239135742 5.749855041503906 C 20.85148239135742 3.764884948730469 19.23636245727539 2.149995803833008 17.25111389160156 2.149995803833008 L 5.750373840332031 2.149995803833008 M 5.750373840332031 -3.814697265625e-06 L 17.25111389160156 -3.814697265625e-06 C 20.42695236206055 -3.814697265625e-06 23.0014820098877 2.574295043945312 23.0014820098877 5.749855041503906 L 23.0014820098877 17.24955558776855 C 23.0014820098877 20.42511558532715 20.42695236206055 22.99940490722656 17.25111389160156 22.99940490722656 L 5.750373840332031 22.99940490722656 C 2.574533462524414 22.99940490722656 3.814697265625e-06 20.42511558532715 3.814697265625e-06 17.24955558776855 L 3.814697265625e-06 5.749855041503906 C 3.814697265625e-06 2.574295043945312 2.574533462524414 -3.814697265625e-06 5.750373840332031 -3.814697265625e-06 Z" stroke="none" fill="#fff"/>
      </g>
      <path id="Polígono_4" data-name="Polígono 4" d="M3.887,2.038,2.031,4.925H5.743L3.887,2.038M3.887,0a1.051,1.051,0,0,1,.891.486L7.6,4.882a1.059,1.059,0,0,1-.891,1.632H1.061A1.059,1.059,0,0,1,.17,4.882L3,.486A1.051,1.051,0,0,1,3.887,0Z" transform="translate(15.047 5.15) rotate(90)" fill="#fff"/>
      <path id="Línea_46" data-name="Línea 46" d="M5.916.434H.083A.535.535,0,0,1-.5-.033.535.535,0,0,1,.083-.5H5.916A.535.535,0,0,1,6.5-.033.535.535,0,0,1,5.916.434Z" transform="translate(5.242 17.703)" fill="#fff"/>
      <path id="Línea_48" data-name="Línea 48" d="M1.417.434H-.917A.535.535,0,0,1-1.5-.033.535.535,0,0,1-.917-.5H1.417A.535.535,0,0,1,2-.033.535.535,0,0,1,1.417.434Z" transform="translate(16.742 17.703)" fill="#fff"/>
      <path id="Línea_47" data-name="Línea 47" d="M.125,2.52a.8.8,0,0,1-.875-.7V-.049a.8.8,0,0,1,.875-.7A.8.8,0,0,1,1-.049V1.819A.8.8,0,0,1,.125,2.52Z" transform="translate(13.367 16.785)" fill="#fff"/>
    </g>
  </g>
</svg>
