<svg xmlns="http://www.w3.org/2000/svg" width="13.718" height="15.678" viewBox="0 0 13.718 15.678">
  <path id="calendar-alt-regular" d="M4.532,8.819H3.307a.369.369,0,0,1-.367-.367V7.226a.369.369,0,0,1,.367-.367H4.532a.369.369,0,0,1,.367.367V8.451A.369.369,0,0,1,4.532,8.819Zm3.307-.367V7.226a.369.369,0,0,0-.367-.367H6.247a.369.369,0,0,0-.367.367V8.451a.369.369,0,0,0,.367.367H7.471A.369.369,0,0,0,7.839,8.451Zm2.94,0V7.226a.369.369,0,0,0-.367-.367H9.186a.369.369,0,0,0-.367.367V8.451a.369.369,0,0,0,.367.367h1.225A.369.369,0,0,0,10.778,8.451Zm-2.94,2.94V10.166A.369.369,0,0,0,7.471,9.8H6.247a.369.369,0,0,0-.367.367v1.225a.369.369,0,0,0,.367.367H7.471A.369.369,0,0,0,7.839,11.391Zm-2.94,0V10.166A.369.369,0,0,0,4.532,9.8H3.307a.369.369,0,0,0-.367.367v1.225a.369.369,0,0,0,.367.367H4.532A.369.369,0,0,0,4.9,11.391Zm5.879,0V10.166a.369.369,0,0,0-.367-.367H9.186a.369.369,0,0,0-.367.367v1.225a.369.369,0,0,0,.367.367h1.225A.369.369,0,0,0,10.778,11.391Zm2.94-7.961V14.208a1.47,1.47,0,0,1-1.47,1.47H1.47A1.47,1.47,0,0,1,0,14.208V3.429A1.47,1.47,0,0,1,1.47,1.96H2.94V.367A.369.369,0,0,1,3.307,0H4.532A.369.369,0,0,1,4.9.367V1.96H8.819V.367A.369.369,0,0,1,9.186,0h1.225a.369.369,0,0,1,.367.367V1.96h1.47A1.47,1.47,0,0,1,13.718,3.429Zm-1.47,10.595V4.9H1.47v9.125a.184.184,0,0,0,.184.184H12.064A.184.184,0,0,0,12.248,14.024Z"/>
</svg>
