<svg xmlns="http://www.w3.org/2000/svg" width="12.096" height="19.953" viewBox="0 0 12.096 19.953">
  <g id="icono" transform="translate(-1195 -32.047)">
    <path id="Trazado_419" data-name="Trazado 419" d="M615.093,479.376a2.494,2.494,0,1,1-2.5,2.494,2.5,2.5,0,0,1,2.5-2.494m0-1.473a3.967,3.967,0,1,0,3.976,3.967,3.971,3.971,0,0,0-3.976-3.967Z" transform="translate(585.955 -445.856)" fill="#ff7212"/>
    <path id="Trazado_425" data-name="Trazado 425" d="M608.754,539.011h-5.645a3.226,3.226,0,0,1-3.226-3.219V531.56a3.226,3.226,0,0,1,3.226-3.218h.664a1.058,1.058,0,1,1,0,2.117h-.664a1.1,1.1,0,0,0-1.1,1.1v4.232a1.1,1.1,0,0,0,1.1,1.1h5.645a1.1,1.1,0,0,0,1.1-1.1V531.56a1.1,1.1,0,0,0-1.1-1.1h-.521a1.058,1.058,0,1,1,0-2.117h.521a3.226,3.226,0,0,1,3.226,3.218v4.232A3.226,3.226,0,0,1,608.754,539.011Z" transform="translate(595.116 -487.011)" fill="#ff7212"/>
  </g>
</svg>
