<svg xmlns="http://www.w3.org/2000/svg" width="62.845" height="62.845" viewBox="0 0 62.845 62.845">
  <g id="Grupo_1574" data-name="Grupo 1574" transform="translate(-1 -1)">
    <rect id="Rectángulo_1657" data-name="Rectángulo 1657" width="6.284" height="8.379" transform="translate(34.517 39.754)" fill="#ff7212"/>
    <rect id="Rectángulo_1658" data-name="Rectángulo 1658" width="6.284" height="8.379" transform="translate(44.991 27.185)" fill="#ff7212"/>
    <rect id="Rectángulo_1659" data-name="Rectángulo 1659" width="6.284" height="8.379" transform="translate(34.517 27.185)" fill="#ff7212"/>
    <rect id="Rectángulo_1660" data-name="Rectángulo 1660" width="6.284" height="8.379" transform="translate(24.043 39.754)" fill="#ff7212"/>
    <rect id="Rectángulo_1661" data-name="Rectángulo 1661" width="6.284" height="8.379" transform="translate(24.043 27.185)" fill="#ff7212"/>
    <rect id="Rectángulo_1662" data-name="Rectángulo 1662" width="6.284" height="8.379" transform="translate(44.991 39.754)" fill="#ff7212"/>
    <path id="Trazado_987" data-name="Trazado 987" d="M57.56,7.284H55.465a6.284,6.284,0,0,0-12.569,0h-4.19a6.284,6.284,0,1,0-12.569,0h-4.19a6.284,6.284,0,0,0-12.569,0H7.284A6.284,6.284,0,0,0,1,13.569V57.56a6.284,6.284,0,0,0,6.284,6.284H57.56a6.284,6.284,0,0,0,6.284-6.284V13.569A6.284,6.284,0,0,0,57.56,7.284ZM55.465,50.228a2.1,2.1,0,0,1-2.095,2.095h-41.9a2.1,2.1,0,0,1-2.095-2.095V25.09A2.1,2.1,0,0,1,11.474,23h41.9a2.1,2.1,0,0,1,2.095,2.095Z" transform="translate(0 0)" fill="#ff7212"/>
    <rect id="Rectángulo_1663" data-name="Rectángulo 1663" width="6.284" height="8.379" transform="translate(13.569 27.185)" fill="#ff7212"/>
    <rect id="Rectángulo_1664" data-name="Rectángulo 1664" width="6.284" height="8.379" transform="translate(13.569 39.754)" fill="#ff7212"/>
  </g>
</svg>
