<svg xmlns="http://www.w3.org/2000/svg" width="13.719" height="12.861" viewBox="0 0 13.719 12.861">
  <g id="Grupo_1603" data-name="Grupo 1603" transform="translate(0 0)">
    <path id="Trazado_993" data-name="Trazado 993" d="M13.29,1.715H7.717V.429A.428.428,0,0,0,7.209.008L.35,1.294A.428.428,0,0,0,0,1.715v9.432a.429.429,0,0,0,.35.421l6.859,1.286a.427.427,0,0,0,.508-.421V11.147H13.29a.429.429,0,0,0,.429-.429V2.144A.429.429,0,0,0,13.29,1.715ZM5.855,8.468a.427.427,0,0,1-.6-.04L4,7,2.911,8.41a.429.429,0,0,1-.677-.527l1.2-1.537L2.25,5A.429.429,0,1,1,2.9,4.434l1.07,1.223,1.27-1.633a.429.429,0,0,1,.677.527L4.54,6.314,5.9,7.863A.429.429,0,0,1,5.855,8.468Zm7.006,1.821H7.717V9.432H9a.429.429,0,0,0,0-.857H7.717V7.717H9a.429.429,0,0,0,0-.857H7.717V6H9a.429.429,0,0,0,0-.857H7.717V4.287H9A.429.429,0,0,0,9,3.43H7.717V2.572h5.145Z" transform="translate(0)" fill="#fff"/>
    <path id="Trazado_994" data-name="Trazado 994" d="M12.429,4.857h.857a.429.429,0,0,0,0-.857h-.857a.429.429,0,0,0,0,.857Z" transform="translate(-1.711 -0.57)" fill="#fff"/>
    <path id="Trazado_995" data-name="Trazado 995" d="M12.429,6.857h.857a.429.429,0,0,0,0-.857h-.857a.429.429,0,0,0,0,.857Z" transform="translate(-1.711 -0.855)" fill="#fff"/>
    <path id="Trazado_996" data-name="Trazado 996" d="M12.429,8.857h.857a.429.429,0,0,0,0-.857h-.857a.429.429,0,0,0,0,.857Z" transform="translate(-1.711 -1.141)" fill="#fff"/>
    <path id="Trazado_997" data-name="Trazado 997" d="M12.429,10.857h.857a.429.429,0,0,0,0-.857h-.857a.429.429,0,0,0,0,.857Z" transform="translate(-1.711 -1.426)" fill="#fff"/>
  </g>
</svg>
