<svg xmlns="http://www.w3.org/2000/svg" width="56.258" height="56.258" viewBox="0 0 56.258 56.258">
  <path id="surface1" d="M35.755,2,2,7.626V52.632l33.755,5.626Zm2.813,5.626v8.439h5.626v2.813H38.568V24.5h5.626v2.813H38.568v5.626h5.626v2.813H38.568V41.38h5.626v2.813H38.568v8.439H52.632a5.624,5.624,0,0,0,5.626-5.626V13.252a5.624,5.624,0,0,0-5.626-5.626Zm8.439,8.439h5.626v2.813H47.006ZM8.242,18.877h5.8l2.99,6.768a11.708,11.708,0,0,1,.613,1.845h.09c.11-.428.374-1.063.7-1.932l3.339-6.681h5.361L20.807,30.042,27.316,41.38H21.6l-3.6-7.3a6.411,6.411,0,0,1-.442-1.581h-.087a11.454,11.454,0,0,1-.439,1.581l-3.7,7.3H7.626l6.768-11.252ZM47.006,24.5h5.626v2.813H47.006Zm0,8.439h5.626v2.813H47.006Zm0,8.439h5.626v2.813H47.006Z" transform="translate(-2 -2)" fill="#ff7212"/>
</svg>
