<svg xmlns="http://www.w3.org/2000/svg" width="15.647" height="20.594" viewBox="0 0 15.647 20.594">
  <g id="Grupo_1539" data-name="Grupo 1539" transform="translate(-1175 -32.331)">
    <path id="Trazado_974" data-name="Trazado 974" d="M608.754,539.011h-7.645a3.226,3.226,0,0,1-3.226-3.219V525.56a1.062,1.062,0,0,1,2.121,0v10.232a1.1,1.1,0,0,0,1.1,1.1h7.645a1.1,1.1,0,0,0,1.1-1.1V522.56a1.1,1.1,0,0,0-1.1-1.1h-2.521a1.058,1.058,0,1,1,0-2.117h2.521a3.226,3.226,0,0,1,3.226,3.218v13.232A3.226,3.226,0,0,1,608.754,539.011Z" transform="translate(1786.98 571.342) rotate(180)" fill="#ff7212"/>
    <line id="Línea_9" data-name="Línea 9" x2="5" transform="translate(1179.5 37.5)" fill="none" stroke="#ff7212" stroke-linecap="round" stroke-width="1.5"/>
    <line id="Línea_10" data-name="Línea 10" x2="5" transform="translate(1179.5 41.5)" fill="none" stroke="#ff7212" stroke-linecap="round" stroke-width="1.5"/>
    <line id="Línea_11" data-name="Línea 11" x2="5" transform="translate(1179.5 45.5)" fill="none" stroke="#ff7212" stroke-linecap="round" stroke-width="1.5"/>
    <path id="Trazado_975" data-name="Trazado 975" d="M1181.721,48.918l2.236,2.236,3.63-3.63" transform="translate(2 0.711)" fill="none" stroke="#ff7212" stroke-linecap="round" stroke-width="1.5"/>
  </g>
</svg>
