<svg xmlns="http://www.w3.org/2000/svg" width="20" height="20" viewBox="0 0 20 20">
  <g id="Group_2017" data-name="Group 2017" transform="translate(-1208 -32)">
    <g id="Path_1369" data-name="Path 1369" transform="translate(1208 32)" fill="none">
      <path d="M5,0H15a5,5,0,0,1,5,5V15a5,5,0,0,1-5,5H5a5,5,0,0,1-5-5V5A5,5,0,0,1,5,0Z" stroke="none"/>
      <path d="M 5 1.5 C 3.070089340209961 1.5 1.5 3.070089340209961 1.5 5 L 1.5 15 C 1.5 16.92991065979004 3.070089340209961 18.5 5 18.5 L 15 18.5 C 16.92991065979004 18.5 18.5 16.92991065979004 18.5 15 L 18.5 5 C 18.5 3.070089340209961 16.92991065979004 1.5 15 1.5 L 5 1.5 M 5 0 L 15 0 C 17.76141929626465 0 20 2.238580703735352 20 5 L 20 15 C 20 17.76141929626465 17.76141929626465 20 15 20 L 5 20 C 2.238580703735352 20 0 17.76141929626465 0 15 L 0 5 C 0 2.238580703735352 2.238580703735352 0 5 0 Z" stroke="none" fill="#5f5f5f"/>
    </g>
    <path id="Polígono_4" data-name="Polígono 4" d="M4.5,2.774,2.747,5.5h3.5L4.5,2.774M4.5.849a.992.992,0,0,1,.841.459L8.01,5.459A1,1,0,0,1,7.168,7H1.832A1,1,0,0,1,.99,5.459L3.659,1.308A.992.992,0,0,1,4.5.849Z" transform="translate(1222.5 35.5) rotate(90)" fill="#5f5f5f"/>
    <path id="Línea_46" data-name="Línea 46" d="M5,.5H0A.5.5,0,0,1-.5,0,.5.5,0,0,1,0-.5H5a.5.5,0,0,1,.5.5A.5.5,0,0,1,5,.5Z" transform="translate(1212.5 47.5)" fill="#5f5f5f"/>
    <path id="Línea_48" data-name="Línea 48" d="M1,.5H-1A.5.5,0,0,1-1.5,0,.5.5,0,0,1-1-.5H1a.5.5,0,0,1,.5.5A.5.5,0,0,1,1,.5Z" transform="translate(1222.5 47.5)" fill="#5f5f5f"/>
    <path id="Línea_47" data-name="Línea 47" d="M0,2.75A.75.75,0,0,1-.75,2V0A.75.75,0,0,1,0-.75.75.75,0,0,1,.75,0V2A.75.75,0,0,1,0,2.75Z" transform="translate(1219.5 46.5)" fill="#5f5f5f"/>
  </g>
</svg>
