<svg xmlns="http://www.w3.org/2000/svg" width="7.676" height="10.237" viewBox="0 0 7.676 10.237">
  <path id="file-pdf-regular" d="M7.394,1.859,5.717.182A.96.96,0,0,0,5.039-.1H.959A.963.963,0,0,0,0,.861V9.177a.96.96,0,0,0,.959.959H6.716a.96.96,0,0,0,.959-.959V2.539a.964.964,0,0,0-.282-.68Zm-.756.6H5.117V.939ZM.959,9.177V.861h3.2V2.94a.479.479,0,0,0,.48.48H6.716V9.177Zm5-2.872c-.244-.24-.94-.174-1.287-.13a1.733,1.733,0,0,1-.736-.926A2.514,2.514,0,0,0,4.046,4.13a.445.445,0,0,0-.852-.118,2.879,2.879,0,0,0,.14,1.341A16.051,16.051,0,0,1,2.627,6.84c-.4.206-.94.524-1.019.924-.066.316.52,1.1,1.521-.624a9.911,9.911,0,0,1,1.367-.4,2.66,2.66,0,0,0,1.115.34A.462.462,0,0,0,5.961,6.3ZM2,7.86a2.4,2.4,0,0,1,.608-.7c-.38.606-.608.714-.608.7ZM3.632,4.05c.148,0,.134.642.036.816A1.676,1.676,0,0,1,3.632,4.05ZM3.144,6.78a7.846,7.846,0,0,0,.494-1.093,2.2,2.2,0,0,0,.6.71A6.763,6.763,0,0,0,3.144,6.78Zm2.631-.1s-.1.12-.746-.156C5.731,6.473,5.847,6.632,5.775,6.68Z" transform="translate(0 0.1)" opacity="0.58"/>
</svg>
