<svg xmlns="http://www.w3.org/2000/svg" width="10.396" height="10.396" viewBox="0 0 10.396 10.396">
  <path id="print-solid" d="M9.1,3.9V1.569a.65.65,0,0,0-.19-.46L7.988.19A.65.65,0,0,0,7.528,0H1.949A.65.65,0,0,0,1.3.65V3.9A1.3,1.3,0,0,0,0,5.2V7.472A.325.325,0,0,0,.325,7.8H1.3V9.747a.65.65,0,0,0,.65.65h6.5a.65.65,0,0,0,.65-.65V7.8h.975a.325.325,0,0,0,.325-.325V5.2A1.3,1.3,0,0,0,9.1,3.9ZM7.8,9.1H2.6V7.148H7.8Zm0-4.548H2.6V1.3H6.5v.975a.325.325,0,0,0,.325.325H7.8ZM8.772,6.01a.487.487,0,1,1,.487-.487A.487.487,0,0,1,8.772,6.01Z" opacity="0.58"/>
</svg>
