<svg xmlns="http://www.w3.org/2000/svg" width="62.237" height="26.579" viewBox="0 0 62.237 26.579">
  <g id="Grupo_1330" data-name="Grupo 1330" transform="translate(-1163.426 -2079)">
    <g id="Grupo_1318" data-name="Grupo 1318" transform="translate(1163.426 2079)">
      <g id="Grupo_1320" data-name="Grupo 1320" transform="translate(0 0)">
        <path id="Trazado_825" data-name="Trazado 825" d="M285.321,991.8a2.742,2.742,0,0,0,2.668,3.165,4.231,4.231,0,0,0,2.3-.889c.294-.222.331-.259.441-.259.147,0,.164.7.164.8,0,.277-.4.536-.679.721a4.745,4.745,0,0,1-2.685.851,4,4,0,0,1-4.028-3.942,4.366,4.366,0,0,1,4.469-4.256,2.908,2.908,0,0,1,2.759,1.591,4.029,4.029,0,0,1,.35,1.61c0,.555-.056.648-.737.648-.459,0-2.465-.037-2.869-.037Zm2.538-2.924a2.606,2.606,0,0,0-2.354,1.941c.515.019,3.6-.017,4.1-.054a1.771,1.771,0,0,0-1.747-1.887Z" transform="translate(-277.137 -969.616)" fill="#fff" fill-rule="evenodd"/>
        <path id="Trazado_826" data-name="Trazado 826" d="M290.408,989.425a2.193,2.193,0,0,1,1.068-1.106,4.017,4.017,0,0,1,1.453-.357c.184,0,.257,0,.257.844,0,.432-.093.45-1.049.637-1.509.282-1.563,1.126-1.619,1.726-.091,1.2-.11,1.968-.128,3.954-.019.676-.019.749-.257.788a5.971,5.971,0,0,1-.81.037c-.588,0-.679,0-.679-.487,0-2.155.128-6.9.165-7.086.037-.151.093-.151.534-.151.13,0,.718-.037.828-.037.238,0,.238.168.238.525v.712Z" transform="translate(-273.277 -969.636)" fill="#fff" fill-rule="evenodd"/>
        <path id="Trazado_827" data-name="Trazado 827" d="M293.6,989.425a2.189,2.189,0,0,1,1.066-1.106,4.026,4.026,0,0,1,1.453-.357c.184,0,.257,0,.257.844,0,.432-.091.45-1.049.637-1.507.282-1.563,1.126-1.618,1.726-.093,1.2-.11,1.968-.13,3.954-.017.676-.017.749-.257.788a5.958,5.958,0,0,1-.809.037c-.588,0-.681,0-.681-.487,0-2.155.13-6.9.166-7.086.037-.151.091-.151.532-.151.13,0,.718-.037.828-.037.24,0,.24.168.24.525v.712Z" transform="translate(-270.88 -969.636)" fill="#fff" fill-rule="evenodd"/>
        <path id="Trazado_828" data-name="Trazado 828" d="M285.957,995.931a1.752,1.752,0,0,0-.138-.448c-.051-.114-.144-.1-.292-.028a2.574,2.574,0,0,1-1.238.35c-1.229.014-1.537-.865-1.565-2.358-.019-.924.065-2.052.154-3.2,1.015-.035,2.025-.065,2.487-.07.114,0,.217-.063.229-.245.011-.137.023-.45.021-.618,0-.24-.023-.329-.236-.329-.378,0-1.383.051-2.4.11.059-.616.145-1.474.154-1.7s-.047-.361-.373-.3a10.163,10.163,0,0,0-1.036.282c-.345.121-.387.2-.436.8-.023.294-.059.648-.1,1.038l-.835.058c-.221.019-.34.039-.389.235a2.941,2.941,0,0,0-.1.593c0,.166.067.285.348.266.154-.01.462-.025.854-.042a29.753,29.753,0,0,0-.194,3.013c.009,2.223.814,3.429,2.587,3.55a3.649,3.649,0,0,0,2.29-.586c.159-.114.229-.214.207-.357Z" transform="translate(-279.865 -970.304)" fill="#fff" fill-rule="evenodd"/>
        <path id="Trazado_829" data-name="Trazado 829" d="M296.862,989.165c-.408,0-.779.112-1.038.112-.278,0-.371-.63-.371-.779,0-.223.186-.52,1.761-.52a4.062,4.062,0,0,1,3.133,1.15,4.444,4.444,0,0,1,.87,3.244c0,.611-.018,1.747-.074,2.586,0,.13-.018.39-.408.415-.149.01-.8-.009-.945.023-.387.084-.382.243-1.316.518a4.842,4.842,0,0,1-1.593.278,2.666,2.666,0,0,1-1.724-.52,1.779,1.779,0,0,1-.649-1.39c0-1.465,1.558-2.484,3.263-2.706a12.293,12.293,0,0,1,1.742-.075c0-.611-.037-2.335-2.65-2.335Zm-.63,4.987c0,.555.427.963,1.26.963a5.179,5.179,0,0,0,1.947-.518c.037-.52.056-1.761.056-2.318-2.318.278-3.263,1.038-3.263,1.873Z" transform="translate(-268.875 -969.623)" fill="#fff" fill-rule="evenodd"/>
        <g id="Grupo_1412" data-name="Grupo 1412" transform="translate(34.907 0)">
          <path id="Trazado_830" data-name="Trazado 830" d="M313.209,973.418a6.038,6.038,0,0,0-2.31-2.872,7.875,7.875,0,0,0-1.94-.666,23.739,23.739,0,0,1,1.239,3.632c1.012-.054,2.022-.086,3.011-.1Z" transform="translate(-287.679 -969.4)" fill="#ae81b1" fill-rule="evenodd"/>
          <path id="Trazado_831" data-name="Trazado 831" d="M311.191,982.221a40.847,40.847,0,0,1-8,3.24c-1.012.313-2.06.61-3.117.882a17.521,17.521,0,0,0,3.593-.152,32.422,32.422,0,0,0,11.461-4.016c-1.308.064-2.648.076-3.932.045Z" transform="translate(-291.794 -963.709)" fill="#00777e" fill-rule="evenodd"/>
          <path id="Trazado_832" data-name="Trazado 832" d="M314.8,984.109c1.485-2.052.765-8.078-1-11.81-.989.009-2,.041-3.011.1.948,3.746,1.077,8.16-1.279,11.179a4.683,4.683,0,0,1-.458,2.1,4.443,4.443,0,0,1-1.385,1.12c1.284.031,2.624.019,3.932-.045a11.087,11.087,0,0,0,3.2-2.639Z" transform="translate(-288.275 -968.281)" fill="#be0811" fill-rule="evenodd"/>
          <path id="Trazado_833" data-name="Trazado 833" d="M303.183,981.44a74.17,74.17,0,0,1-7.582-.041,9.232,9.232,0,0,0,3.011,4.318,7.83,7.83,0,0,0,3.525.986c1.058-.272,2.105-.569,3.117-.882a23.8,23.8,0,0,1-2.071-4.381Z" transform="translate(-293.862 -964.069)" fill="#81b597" fill-rule="evenodd"/>
          <path id="Trazado_834" data-name="Trazado 834" d="M303.231,981.327c-.793.06-1.611.108-2.447.146a23.794,23.794,0,0,0,2.071,4.381,40.845,40.845,0,0,0,8-3.24c-3.606-.091-6.77-.534-7.506-1.175-.042-.035-.082-.074-.123-.113Z" transform="translate(-291.463 -964.102)" fill="#0094a1" fill-rule="evenodd"/>
          <path id="Trazado_835" data-name="Trazado 835" d="M311.471,982.105a4.682,4.682,0,0,0,.458-2.1c-.018.022-.034.045-.053.069-.572.717-4.473,1.492-9.419,1.864.041.038.08.078.123.113.736.641,3.9,1.084,7.506,1.175a4.442,4.442,0,0,0,1.385-1.121Z" transform="translate(-290.689 -964.714)" fill="#a01217" fill-rule="evenodd"/>
          <path id="Trazado_836" data-name="Trazado 836" d="M314.611,970.033a35.127,35.127,0,0,0-13.583.421,20.326,20.326,0,0,0-4.282,1.418c1.406-.1,2.857-.148,4.285-.133,4.076.041,7.964.552,10.059,1.48a2.571,2.571,0,0,1,.924.769c1.251-.145,2.544-.253,3.836-.323a23.735,23.735,0,0,0-1.239-3.632Z" transform="translate(-293.331 -969.552)" fill="#985d9a" fill-rule="evenodd"/>
          <path id="Trazado_837" data-name="Trazado 837" d="M302.73,977.153a42.883,42.883,0,0,1-.617-6.1c-1.428-.015-2.879.029-4.285.133a6.474,6.474,0,0,0-2.5,1.892c-1.577,2.226-1.006,8.607.821,13.119a74.17,74.17,0,0,0,7.582.041c-1.238-3.454-1.747-7.1-1-9.08Z" transform="translate(-294.412 -968.861)" fill="#dddb1c" fill-rule="evenodd"/>
          <path id="Trazado_838" data-name="Trazado 838" d="M310.659,973.3a2.572,2.572,0,0,0-.924-.769c-2.095-.929-5.983-1.439-10.059-1.48a42.883,42.883,0,0,0,.617,6.1,2.8,2.8,0,0,1,.481-.848c1.254-1.45,5.284-2.474,9.884-3.006Z" transform="translate(-291.976 -968.86)" fill="#b6c62c" fill-rule="evenodd"/>
          <path id="Trazado_839" data-name="Trazado 839" d="M300.207,975.22c-.743,1.981-.234,5.626,1,9.08.837-.038,1.655-.086,2.447-.146-1.665-1.571-2.809-5.217-3.451-8.934Z" transform="translate(-291.89 -966.929)" fill="#83ae38" fill-rule="evenodd"/>
          <path id="Trazado_840" data-name="Trazado 840" d="M311.421,974.337c-.107-.67-.243-1.33-.405-1.971-1.292.07-2.585.178-3.836.323a9.165,9.165,0,0,1,1.359,2.728,11.343,11.343,0,0,1,2.041-.98,2.315,2.315,0,0,1,.841-.1Z" transform="translate(-288.502 -968.25)" fill="#751712" fill-rule="evenodd"/>
          <path id="Trazado_841" data-name="Trazado 841" d="M309.307,982.921c1.951-2.5,2.2-5.963,1.684-9.207a2.314,2.314,0,0,0-.841.1,11.347,11.347,0,0,0-2.041.98,24.525,24.525,0,0,1,1.2,8.126Z" transform="translate(-288.072 -967.627)" fill="#841816" fill-rule="evenodd"/>
        </g>
      </g>
    </g>
  </g>
</svg>
