<svg xmlns="http://www.w3.org/2000/svg" width="116.271" height="42.731" viewBox="0 0 116.271 42.731">
  <g id="Grupo_1505" data-name="Grupo 1505" transform="translate(-342.049 -171.499)">
    <path id="Trazado_959" data-name="Trazado 959" d="M385.574,209.442v3.921c0,.4.72.8,1.36.8a1.71,1.71,0,0,0,1.04-.4l9.6-8a.6.6,0,0,0,0-.96l-9.6-8a1.434,1.434,0,0,0-1.04-.4c-.64,0-1.36.32-1.36.8v3.921H368.449v8.322h17.125Z" transform="translate(-5.274 -4.975)" fill="#ff7212"/>
    <path id="Trazado_960" data-name="Trazado 960" d="M386.236,189.383h.023a11.059,11.059,0,0,0-3.563-6.723H368.872V178.9a1.162,1.162,0,0,0-.96-.4.967.967,0,0,0-.72.24l-8.482,7.122c-.16.08-.16.16-.16.16l.16.16,8.482,7.122a1.291,1.291,0,0,0,.72.24c.56,0,.96-.24.96-.4v-3.761h17.365Z" transform="translate(-3.296 -1.399)" fill="#fc954f"/>
    <path id="Trazado_961" data-name="Trazado 961" d="M480.116,175.32c0,3.281,0,3.281-3.361,3.281H458.831v11.2h16.644c3.2,0,3.2,0,3.2,3.041s0,3.041-3.2,3.041H458.831v11.443h18.085c3.361,0,3.361,0,3.361,3.2,0,3.281,0,3.281-3.361,3.281H457.15c-5.2,0-5.2,0-5.2-5.121V177.24c0-4.961,0-4.961,5.2-5.041h19.605C480.116,172.2,480.116,172.2,480.116,175.32Z" transform="translate(-21.957 -0.14)" fill="#3f3f3f"/>
    <path id="Trazado_962" data-name="Trazado 962" d="M434.336,174.86c.88.56,1.28.96,1.28,1.6,0,.48-.16.8-1.28,2.481-1.12,1.52-1.52,2.161-2.161,2.161-.56,0-1.12-.48-2.4-1.04a15.134,15.134,0,0,0-7.922-2c-5.682,0-7.842,2.641-7.842,5.6,0,3.121,2.241,4.481,9.042,5.762,10.323,1.921,14.884,5.281,14.884,12.243,0,7.362-5.842,12.563-15.6,12.563a23.412,23.412,0,0,1-14.324-4.4c-1.12-.8-1.76-1.44-1.76-2.161,0-.64.32-1.04,1.52-2.481.96-1.2,1.52-2,2.241-2,.56,0,1.04.48,2.241,1.28a17.2,17.2,0,0,0,10.483,3.041c5.121,0,8.322-2.161,8.322-5.922,0-3.2-3.2-4.481-9.843-5.842-9.763-1.84-14-5.2-14-12.163,0-7.362,6-12.083,14.724-12.083A22.209,22.209,0,0,1,434.336,174.86Z" transform="translate(-12.826)" fill="#3f3f3f"/>
    <g id="Grupo_1517" data-name="Grupo 1517" transform="translate(356.293 172.059)">
      <path id="Trazado_963" data-name="Trazado 963" d="M368.091,174.68c1.841,0,3.521,1.12,3.521,2.961v1.2h3.841A11.887,11.887,0,0,1,382.9,181.4h-.08a11.378,11.378,0,0,1,3.681,6.722h0a5.4,5.4,0,0,1,.16,1.12,4.058,4.058,0,0,1,1.28.72l5.762,4.8a58.444,58.444,0,0,0-.16-6.482c-.8-9.282-8.322-16.084-18.4-16.084H365.05c-5.2,0-5.2.08-5.2,5.041v3.2l5.842-4.881A3.443,3.443,0,0,1,368.091,174.68Z" transform="translate(-359.849 -172.199)" fill="#3f3f3f"/>
      <path id="Trazado_964" data-name="Trazado 964" d="M381.295,212.784v-1.36H366.731V198.94a4.312,4.312,0,0,1-1.04-.56l-5.842-4.881v19.445c0,5.041,0,5.041,5.2,5.041h10.163a19.876,19.876,0,0,0,8.882-2A3.479,3.479,0,0,1,381.295,212.784Z" transform="translate(-359.849 -176.454)" fill="#3f3f3f"/>
    </g>
    <path id="Trazado_965" data-name="Trazado 965" d="M345.49,172.2c3.441,0,3.441,0,3.441,3.521v34.649c0,3.441,0,3.441-3.441,3.441s-3.441,0-3.441-3.521V175.72C342.049,172.2,342.049,172.2,345.49,172.2Z" transform="translate(0 -0.14)" fill="#3f3f3f"/>
  </g>
</svg>
