<svg xmlns="http://www.w3.org/2000/svg" width="48" height="48" viewBox="0 0 48 48">
  <g id="Group_7665" data-name="Group 7665" transform="translate(-807 -18)">
    <g id="Rectangle_3658" data-name="Rectangle 3658" transform="translate(807 18)" fill="#ff7212" stroke="#ff7212" stroke-width="1">
      <rect width="48" height="48" rx="5" stroke="none"/>
      <rect x="0.5" y="0.5" width="47" height="47" rx="4.5" fill="none"/>
    </g>
    <g id="Group_2017" data-name="Group 2017" transform="translate(-387)">
      <g id="Group_2014" data-name="Group 2014" transform="translate(-2142 -18407.162)">
        <path id="questions" d="M43.6,22.311H59.66a3.1,3.1,0,0,0,3.1-3.1V3.1A3.1,3.1,0,0,0,59.66,0H43.6a3.1,3.1,0,0,0-3.1,3.1V23.344a3.1,3.1,0,0,0,3.1,3.1H59.66a3.1,3.1,0,0,0,3.1-3.1v0a5.138,5.138,0,0,1-3.1,1.035H43.6a1.033,1.033,0,0,1,0-2.066ZM42.566,3.1A1.034,1.034,0,0,1,43.6,2.066H59.66A1.034,1.034,0,0,1,60.693,3.1V19.212a1.034,1.034,0,0,1-1.033,1.033H43.6a3.085,3.085,0,0,0-1.033.177Z" transform="translate(3308.5 18437)" fill="#fff"/>
        <path id="Path_1368" data-name="Path 1368" d="M.391,0h.781a.391.391,0,0,1,.391.391V6.328a.391.391,0,0,1-.391.391H.391A.391.391,0,0,1,0,6.328V.391A.391.391,0,0,1,.391,0Z" transform="translate(3359.322 18446.861)" fill="#fff"/>
        <path id="Path_1367" data-name="Path 1367" d="M.391,0h.781a.391.391,0,0,1,.391.391v.781a.391.391,0,0,1-.391.391H.391A.391.391,0,0,1,0,1.172V.391A.391.391,0,0,1,.391,0Z" transform="translate(3359.322 18442.377)" fill="#fff"/>
      </g>
    </g>
  </g>
</svg>
