<svg xmlns="http://www.w3.org/2000/svg" width="48" height="48" viewBox="0 0 48 48">
  <g id="Group_2032" data-name="Group 2032" transform="translate(-807 -18)">
    <g id="Rectangle_3658" data-name="Rectangle 3658" transform="translate(807 18)" fill="#ff7212" stroke="#ff7212" stroke-width="1">
      <rect width="48" height="48" rx="5" stroke="none"/>
      <rect x="0.5" y="0.5" width="47" height="47" rx="4.5" fill="none"/>
    </g>
    <g id="Group_2017" data-name="Group 2017" transform="translate(-387)">
      <g id="Path_1369" data-name="Path 1369" transform="translate(1205.546 29.838)" fill="none">
        <path d="M6.155,0H18.464a6.154,6.154,0,0,1,6.155,6.154V18.462a6.154,6.154,0,0,1-6.155,6.154H6.155A6.154,6.154,0,0,1,0,18.462V6.154A6.154,6.154,0,0,1,6.155,0Z" stroke="none"/>
        <path d="M 6.154533386230469 2.150001525878906 C 3.946422576904297 2.150001525878906 2.150003433227539 3.946172714233398 2.150003433227539 6.153963088989258 L 2.150003433227539 18.46188354492188 C 2.150003433227539 20.6696720123291 3.946422576904297 22.46584320068359 6.154533386230469 22.46584320068359 L 18.46359252929688 22.46584320068359 C 20.67170333862305 22.46584320068359 22.4681224822998 20.6696720123291 22.4681224822998 18.46188354492188 L 22.4681224822998 6.153963088989258 C 22.4681224822998 3.946172714233398 20.67170333862305 2.150001525878906 18.46359252929688 2.150001525878906 L 6.154533386230469 2.150001525878906 M 6.154533386230469 1.9073486328125e-06 L 18.46359252929688 1.9073486328125e-06 C 21.86264228820801 1.9073486328125e-06 24.61812210083008 2.755222320556641 24.61812210083008 6.153963088989258 L 24.61812210083008 18.46188354492188 C 24.61812210083008 21.86062240600586 21.86264228820801 24.61584281921387 18.46359252929688 24.61584281921387 L 6.154533386230469 24.61584281921387 C 2.755472183227539 24.61584281921387 3.814697265625e-06 21.86062240600586 3.814697265625e-06 18.46188354492188 L 3.814697265625e-06 6.153963088989258 C 3.814697265625e-06 2.755222320556641 2.755472183227539 1.9073486328125e-06 6.154533386230469 1.9073486328125e-06 Z" stroke="none" fill="#fff"/>
      </g>
      <path id="Polígono_4" data-name="Polígono 4" d="M4.99,3.031,3,6.121H6.976L4.99,3.031m0-2.182a1.125,1.125,0,0,1,.953.521l3.025,4.7a1.134,1.134,0,0,1-.953,1.746H1.965a1.134,1.134,0,0,1-.953-1.746l3.025-4.7A1.125,1.125,0,0,1,4.99.849Z" transform="translate(1222.5 34.52) rotate(90)" fill="#fff"/>
      <path id="Línea_46" data-name="Línea 46" d="M6.367.5H.124A.573.573,0,0,1-.5,0,.573.573,0,0,1,.124-.5H6.367a.573.573,0,0,1,.624.5A.573.573,0,0,1,6.367.5Z" transform="translate(1211.121 48.75)" fill="#fff"/>
      <path id="Línea_48" data-name="Línea 48" d="M1.622.5h-2.5A.573.573,0,0,1-1.5,0,.573.573,0,0,1-.876-.5h2.5a.573.573,0,0,1,.624.5A.573.573,0,0,1,1.622.5Z" transform="translate(1223.359 48.75)" fill="#fff"/>
      <path id="Línea_47" data-name="Línea 47" d="M.186,2.75A.859.859,0,0,1-.75,2V0A.859.859,0,0,1,.186-.75.859.859,0,0,1,1.123,0V2A.859.859,0,0,1,.186,2.75Z" transform="translate(1219.799 47.75)" fill="#fff"/>
    </g>
  </g>
</svg>
