<svg xmlns="http://www.w3.org/2000/svg" xmlns:xlink="http://www.w3.org/1999/xlink" width="102.5" height="66.5" viewBox="0 0 102.5 66.5">
  <defs>
    <filter id="Rectangle_1721" x="17.5" y="0" width="85" height="36" filterUnits="userSpaceOnUse">
      <feOffset input="SourceAlpha"/>
      <feGaussianBlur stdDeviation="2.5" result="blur"/>
      <feFlood flood-opacity="0.161"/>
      <feComposite operator="in" in2="blur"/>
      <feComposite in="SourceGraphic"/>
    </filter>
  </defs>
  <g id="rollover" transform="translate(-1981 635.5)">
    <g id="Group_2035" data-name="Group 2035" transform="translate(1172 -637)">
      <g id="Rectangle_3658" data-name="Rectangle 3658" transform="translate(809 20)" fill="#f8f8f8" stroke="#ff7212" stroke-width="1">
        <rect width="40" height="48" rx="4" stroke="none"/>
        <rect x="0.5" y="0.5" width="39" height="47" rx="3.5" fill="none"/>
      </g>
      <g id="Group_2017" data-name="Group 2017" transform="translate(817 33)">
        <g id="Path_1369" data-name="Path 1369" transform="translate(0)" fill="none">
          <path d="M5.75,0h11.5A5.75,5.75,0,0,1,23,5.75v11.5A5.75,5.75,0,0,1,17.251,23H5.75A5.75,5.75,0,0,1,0,17.25V5.75A5.75,5.75,0,0,1,5.75,0Z" stroke="none"/>
          <path d="M 5.750373840332031 2.149995803833008 C 3.76512336730957 2.149995803833008 2.150003433227539 3.764884948730469 2.150003433227539 5.749855041503906 L 2.150003433227539 17.24955558776855 C 2.150003433227539 19.23451614379883 3.76512336730957 20.84940528869629 5.750373840332031 20.84940528869629 L 17.25111389160156 20.84940528869629 C 19.23636245727539 20.84940528869629 20.85148239135742 19.23451614379883 20.85148239135742 17.24955558776855 L 20.85148239135742 5.749855041503906 C 20.85148239135742 3.764884948730469 19.23636245727539 2.149995803833008 17.25111389160156 2.149995803833008 L 5.750373840332031 2.149995803833008 M 5.750373840332031 -3.814697265625e-06 L 17.25111389160156 -3.814697265625e-06 C 20.42695236206055 -3.814697265625e-06 23.0014820098877 2.574295043945312 23.0014820098877 5.749855041503906 L 23.0014820098877 17.24955558776855 C 23.0014820098877 20.42511558532715 20.42695236206055 22.99940490722656 17.25111389160156 22.99940490722656 L 5.750373840332031 22.99940490722656 C 2.574533462524414 22.99940490722656 3.814697265625e-06 20.42511558532715 3.814697265625e-06 17.24955558776855 L 3.814697265625e-06 5.749855041503906 C 3.814697265625e-06 2.574295043945312 2.574533462524414 -3.814697265625e-06 5.750373840332031 -3.814697265625e-06 Z" stroke="none" fill="#ff7212"/>
        </g>
        <path id="Polígono_4" data-name="Polígono 4" d="M3.887,2.038,2.031,4.925H5.743L3.887,2.038M3.887,0a1.051,1.051,0,0,1,.891.486L7.6,4.882a1.059,1.059,0,0,1-.891,1.632H1.061A1.059,1.059,0,0,1,.17,4.882L3,.486A1.051,1.051,0,0,1,3.887,0Z" transform="translate(15.047 5.15) rotate(90)" fill="#ff7212"/>
        <path id="Línea_46" data-name="Línea 46" d="M5.916.434H.083A.535.535,0,0,1-.5-.033.535.535,0,0,1,.083-.5H5.916A.535.535,0,0,1,6.5-.033.535.535,0,0,1,5.916.434Z" transform="translate(5.242 17.703)" fill="#ff7212"/>
        <path id="Línea_48" data-name="Línea 48" d="M1.417.434H-.917A.535.535,0,0,1-1.5-.033.535.535,0,0,1-.917-.5H1.417A.535.535,0,0,1,2-.033.535.535,0,0,1,1.417.434Z" transform="translate(16.742 17.703)" fill="#ff7212"/>
        <path id="Línea_47" data-name="Línea 47" d="M.125,2.52a.8.8,0,0,1-.875-.7V-.049a.8.8,0,0,1,.875-.7A.8.8,0,0,1,1-.049V1.819A.8.8,0,0,1,.125,2.52Z" transform="translate(13.367 16.785)" fill="#ff7212"/>
      </g>
    </g>
    <g id="Group_2019" data-name="Group 2019" transform="translate(859 -650)">
      <g transform="matrix(1, 0, 0, 1, 1122, 14.5)" filter="url(#Rectangle_1721)">
        <path id="Rectangle_1721-2" data-name="Rectangle 1721" d="M5,0H65a5,5,0,0,1,5,5V16a5,5,0,0,1-5,5H0a0,0,0,0,1,0,0V5A5,5,0,0,1,5,0Z" transform="translate(25 7.5)" fill="#5f5f5f"/>
      </g>
    </g>
    <g id="Group_2019-2" data-name="Group_2019" transform="translate(858.8 -650.7)">
      <g id="Group_2037" data-name="Group 2037">
        <path id="Path_1370" data-name="Path 1370" d="M1153.2,28.8h1.7l1,6.7h.2l1.5-6.7h1.9l1.5,6.7h.2l1-6.7h1.7l-1.6,8.2h-2.5l-1.3-6.2-1.3,6.2h-2.5Z" fill="#fff"/>
        <path id="Path_1371" data-name="Path 1371" d="M1165,37V28.8h5.3v1.4h-3.6v1.9h2.9v1.4h-2.9v2h3.6V37Z" fill="#fff"/>
        <path id="Path_1372" data-name="Path 1372" d="M1171.7,28.8h3.2a3.312,3.312,0,0,1,1.9.5,2.059,2.059,0,0,1,.6,1.7,3.087,3.087,0,0,1-.2,1.1,1.576,1.576,0,0,1-.7.7,1.853,1.853,0,0,1,.8.7,2.62,2.62,0,0,1-.4,3,2.986,2.986,0,0,1-2,.6h-3.3V28.8Zm3.1,1.5h-1.5v1.9h1.5c.6,0,.9-.3.9-1C1175.8,30.6,1175.4,30.3,1174.8,30.3Zm.1,3.3h-1.5v2h1.5a1.549,1.549,0,0,0,.8-.2c.2-.1.3-.4.3-.8C1175.9,33.9,1175.6,33.6,1174.9,33.6Z" fill="#fff"/>
        <path id="Path_1373" data-name="Path 1373" d="M1179,37V28.8h1.7V37Z" fill="#fff"/>
        <path id="Path_1374" data-name="Path 1374" d="M1182.4,37V28.8h2.8l2,6.7h.1V28.8h1.7V37h-2.7l-2-6.7h-.1V37Z" fill="#fff"/>
        <path id="Path_1375" data-name="Path 1375" d="M1190.1,37l1.8-8.2h3.1l1.8,8.2h-1.7l-.3-1.5h-2.9l-.3,1.5Zm3.1-6.8-.8,3.9h2.2l-.8-3.9h-.6Z" fill="#fff"/>
        <path id="Path_1376" data-name="Path 1376" d="M1199.6,34.3V37h-1.7V28.8h3.2c1.9,0,2.9.9,2.9,2.7a2.73,2.73,0,0,1-1.2,2.4L1204,37h-1.8l-.9-2.7Zm2.4-1.8a1.5,1.5,0,0,0,0-1.8,1.222,1.222,0,0,0-.9-.3h-1.5V33h1.5C1201.6,32.8,1201.9,32.7,1202,32.5Z" fill="#fff"/>
        <path id="Path_1377" data-name="Path 1377" d="M1207.9,30.1c-.9,0-1.3.3-1.3.9a.6.6,0,0,0,.3.6q.3.15,1.5.6a3.8,3.8,0,0,1,1.7.9,2.07,2.07,0,0,1,.5,1.5,2.268,2.268,0,0,1-.8,1.9,3.221,3.221,0,0,1-2,.7,11.151,11.151,0,0,1-2.3-.3l-.4-.1.2-1.3c1.1.1,1.9.2,2.5.2.8,0,1.3-.4,1.3-1.1a.6.6,0,0,0-.3-.6,8.658,8.658,0,0,0-1.2-.5,7.664,7.664,0,0,1-2-.9,2.035,2.035,0,0,1-.6-1.5,2.139,2.139,0,0,1,.7-1.8,3.173,3.173,0,0,1,2-.6c.6,0,1.3.1,2.3.2l.4.1-.1,1.3C1209.2,30.2,1208.4,30.1,1207.9,30.1Z" fill="#fff"/>
      </g>
    </g>
  </g>
</svg>
