<svg xmlns="http://www.w3.org/2000/svg" xmlns:xlink="http://www.w3.org/1999/xlink" width="101.5" height="61.5" viewBox="0 0 101.5 61.5">
  <defs>
    <filter id="Rectangle_1721" x="16.5" y="0" width="85" height="36" filterUnits="userSpaceOnUse">
      <feOffset input="SourceAlpha"/>
      <feGaussianBlur stdDeviation="2.5" result="blur"/>
      <feFlood flood-opacity="0.161"/>
      <feComposite operator="in" in2="blur"/>
      <feComposite in="SourceGraphic"/>
    </filter>
  </defs>
  <g id="Group_7667" data-name="Group 7667" transform="translate(-1223 -4.5)">
    <g id="Group_7666" data-name="Group 7666" transform="translate(416)">
      <g id="Rectangle_3658" data-name="Rectangle 3658" transform="translate(807 18)" fill="#fff" stroke="#ff7212" stroke-width="1">
        <rect width="48" height="48" rx="5" stroke="none"/>
        <rect x="0.5" y="0.5" width="47" height="47" rx="4.5" fill="none"/>
      </g>
      <g id="Group_2017" data-name="Group 2017" transform="translate(-387)">
        <g id="Path_1369" data-name="Path 1369" transform="translate(1205.546 29.838)" fill="#fff">
          <path d="M 18.46359252929688 23.54084205627441 L 6.154532909393311 23.54084205627441 C 3.353672981262207 23.54084205627441 1.075002908706665 21.26243209838867 1.075002908706665 18.46188163757324 L 1.075002908706665 6.153962135314941 C 1.075002908706665 3.353412389755249 3.353672981262207 1.075002312660217 6.154532909393311 1.075002312660217 L 18.46359252929688 1.075002312660217 C 21.26445388793945 1.075002312660217 23.54312324523926 3.353412389755249 23.54312324523926 6.153962135314941 L 23.54312324523926 18.46188163757324 C 23.54312324523926 21.26243209838867 21.26445388793945 23.54084205627441 18.46359252929688 23.54084205627441 Z" stroke="none"/>
          <path d="M 6.154533386230469 2.150001525878906 C 3.946422576904297 2.150001525878906 2.150003433227539 3.946172714233398 2.150003433227539 6.153963088989258 L 2.150003433227539 18.46188354492188 C 2.150003433227539 20.6696720123291 3.946422576904297 22.46584320068359 6.154533386230469 22.46584320068359 L 18.46359252929688 22.46584320068359 C 20.67170333862305 22.46584320068359 22.4681224822998 20.6696720123291 22.4681224822998 18.46188354492188 L 22.4681224822998 6.153963088989258 C 22.4681224822998 3.946172714233398 20.67170333862305 2.150001525878906 18.46359252929688 2.150001525878906 L 6.154533386230469 2.150001525878906 M 6.154533386230469 1.9073486328125e-06 L 18.46359252929688 1.9073486328125e-06 C 21.86264228820801 1.9073486328125e-06 24.61812210083008 2.755222320556641 24.61812210083008 6.153963088989258 L 24.61812210083008 18.46188354492188 C 24.61812210083008 21.86062240600586 21.86264228820801 24.61584281921387 18.46359252929688 24.61584281921387 L 6.154533386230469 24.61584281921387 C 2.755472183227539 24.61584281921387 3.814697265625e-06 21.86062240600586 3.814697265625e-06 18.46188354492188 L 3.814697265625e-06 6.153963088989258 C 3.814697265625e-06 2.755222320556641 2.755472183227539 1.9073486328125e-06 6.154533386230469 1.9073486328125e-06 Z" stroke="none" fill="#ff7212"/>
        </g>
        <path id="Polígono_4" data-name="Polígono 4" d="M4.99,3.031,3,6.121H6.976L4.99,3.031m0-2.182a1.125,1.125,0,0,1,.953.521l3.025,4.7a1.134,1.134,0,0,1-.953,1.746H1.965a1.134,1.134,0,0,1-.953-1.746l3.025-4.7A1.125,1.125,0,0,1,4.99.849Z" transform="translate(1222.5 34.52) rotate(90)" fill="#ff7212"/>
        <path id="Línea_46" data-name="Línea 46" d="M6.367.5H.124A.573.573,0,0,1-.5,0,.573.573,0,0,1,.124-.5H6.367a.573.573,0,0,1,.624.5A.573.573,0,0,1,6.367.5Z" transform="translate(1211.121 48.75)" fill="#ff7212"/>
        <path id="Línea_48" data-name="Línea 48" d="M1.622.5h-2.5A.573.573,0,0,1-1.5,0,.573.573,0,0,1-.876-.5h2.5a.573.573,0,0,1,.624.5A.573.573,0,0,1,1.622.5Z" transform="translate(1223.359 48.75)" fill="#ff7212"/>
        <path id="Línea_47" data-name="Línea 47" d="M.186,2.75A.859.859,0,0,1-.75,2V0A.859.859,0,0,1,.186-.75.859.859,0,0,1,1.123,0V2A.859.859,0,0,1,.186,2.75Z" transform="translate(1219.799 47.75)" fill="#ff7212"/>
      </g>
    </g>
    <g id="Group_2019" data-name="Group 2019" transform="translate(100 -10)">
      <g transform="matrix(1, 0, 0, 1, 1123, 14.5)" filter="url(#Rectangle_1721)">
        <path id="Rectangle_1721-2" data-name="Rectangle 1721" d="M5,0H65a5,5,0,0,1,5,5V16a5,5,0,0,1-5,5H0V5A5,5,0,0,1,5,0Z" transform="translate(24 7.5)" fill="#5f5f5f"/>
      </g>
      <path id="WEBINARS" d="M.228-8.16h1.74L2.976-1.416h.18L4.62-8.16H6.54L8-1.416h.18L9.192-8.16h1.74L9.372,0H6.864L5.58-6.2,4.3,0H1.788ZM12.048,0V-8.16h5.28v1.44H13.7v1.908h2.9V-3.4H13.7V-1.44h3.624V0ZM18.7-8.16h3.2a3.009,3.009,0,0,1,1.908.51A1.992,1.992,0,0,1,24.444-6a2.421,2.421,0,0,1-.2,1.086,1.873,1.873,0,0,1-.7.714,1.631,1.631,0,0,1,.8.66,2.345,2.345,0,0,1,.258,1.2,2.158,2.158,0,0,1-.7,1.764A2.986,2.986,0,0,1,21.948,0H18.7Zm3.168,4.752H20.352v1.992h1.512a1.227,1.227,0,0,0,.8-.216,1,1,0,0,0,.258-.792Q22.92-3.408,21.864-3.408Zm-.048-3.336H20.352V-4.8h1.476q.936,0,.936-.972A.849.849,0,0,0,21.816-6.744ZM26,0V-8.16H27.66V0Zm3.432,0V-8.16h2.8L34.2-1.44h.12V-8.16h1.656V0H33.252l-2.04-6.72h-.12V0Zm7.632,0L38.9-8.16h3.144L43.884,0H42.228L41.9-1.476H39.048L38.724,0Zm3.12-6.792L39.36-2.916h2.232l-.828-3.876Zm6.444,4.056V0H44.976V-8.16h3.168q2.88,0,2.88,2.688a2.581,2.581,0,0,1-1.2,2.352L50.988,0H49.176l-.948-2.736Zm1.536-1.416a1.054,1.054,0,0,0,.876-.36,1.472,1.472,0,0,0,.288-.948,1.367,1.367,0,0,0-.306-.936,1.112,1.112,0,0,0-.882-.348H46.632v2.592Zm6.756-2.712q-1.308,0-1.308.864a.654.654,0,0,0,.324.588,8.416,8.416,0,0,0,1.518.588,4.192,4.192,0,0,1,1.674.87,2.051,2.051,0,0,1,.48,1.494,2.4,2.4,0,0,1-.78,1.944,3.05,3.05,0,0,1-2.04.66A11.352,11.352,0,0,1,52.5-.144l-.432-.084.168-1.284A19.977,19.977,0,0,0,54.7-1.3q1.272,0,1.272-1.056a.7.7,0,0,0-.294-.6A4.161,4.161,0,0,0,54.5-3.42a4.772,4.772,0,0,1-1.962-.942,2,2,0,0,1-.57-1.518A2.2,2.2,0,0,1,52.716-7.7a3.162,3.162,0,0,1,2.04-.6,13.554,13.554,0,0,1,2.256.24l.432.084-.132,1.308Q55.62-6.864,54.924-6.864Z" transform="translate(1153 37)" fill="#fff"/>
    </g>
  </g>
</svg>
