<svg xmlns="http://www.w3.org/2000/svg" width="31" height="31" viewBox="0 0 31 31">
  <g id="Group_7657" data-name="Group 7657" transform="translate(-220 -17)">
    <g id="Rectangle_3660" data-name="Rectangle 3660" transform="translate(220 17)" fill="#fff" stroke="#ff7212" stroke-width="1">
      <rect width="31" height="31" rx="5" stroke="none"/>
      <rect x="0.5" y="0.5" width="30" height="30" rx="4.5" fill="none"/>
    </g>
    <g id="Group_2017" data-name="Group 2017" transform="translate(-982 -9)">
      <path id="Trazado_1369" data-name="Trazado 1369" d="M4.739,1.422A3.321,3.321,0,0,0,1.422,4.739v9.479a3.321,3.321,0,0,0,3.317,3.317h9.479a3.321,3.321,0,0,0,3.317-3.317V4.739a3.321,3.321,0,0,0-3.317-3.317H4.739M4.739,0h9.479a4.739,4.739,0,0,1,4.739,4.739v9.479a4.739,4.739,0,0,1-4.739,4.739H4.739A4.739,4.739,0,0,1,0,14.218V4.739A4.739,4.739,0,0,1,4.739,0Z" transform="translate(1208 32)" fill="#ff7212"/>
      <path id="Polígono_4" data-name="Polígono 4" d="M3.479,1.824,1.817,4.408H5.14L3.479,1.824M3.479,0a.94.94,0,0,1,.8.435L6.805,4.37a.948.948,0,0,1-.8,1.46H.949a.948.948,0,0,1-.8-1.46L2.681.435A.94.94,0,0,1,3.479,0Z" transform="translate(1220.939 36.104) rotate(90)" fill="#ff7212"/>
      <path id="Línea_46" data-name="Línea 46" d="M4.713.448H-.026A.474.474,0,0,1-.5-.026.474.474,0,0,1-.026-.5H4.713a.474.474,0,0,1,.474.474A.474.474,0,0,1,4.713.448Z" transform="translate(1212.291 46.718)" fill="#ff7212"/>
      <path id="Línea_48" data-name="Línea 48" d="M.87.448h-1.9A.474.474,0,0,1-1.5-.026.474.474,0,0,1-1.026-.5H.87a.474.474,0,0,1,.474.474A.474.474,0,0,1,.87.448Z" transform="translate(1221.822 46.718)" fill="#ff7212"/>
      <path id="Línea_47" data-name="Línea 47" d="M-.039,2.567A.711.711,0,0,1-.75,1.857v-1.9A.711.711,0,0,1-.039-.75a.711.711,0,0,1,.711.711v1.9A.711.711,0,0,1-.039,2.567Z" transform="translate(1218.939 45.783)" fill="#ff7212"/>
    </g>
  </g>
</svg>
