<svg xmlns="http://www.w3.org/2000/svg" xmlns:xlink="http://www.w3.org/1999/xlink" width="103.5" height="59.5" viewBox="0 0 103.5 59.5">
  <defs>
    <filter id="Rectangle_1721" x="18.5" y="0" width="85" height="36" filterUnits="userSpaceOnUse">
      <feOffset input="SourceAlpha"/>
      <feGaussianBlur stdDeviation="2.5" result="blur"/>
      <feFlood flood-opacity="0.161"/>
      <feComposite operator="in" in2="blur"/>
      <feComposite in="SourceGraphic"/>
    </filter>
  </defs>
  <g id="Group_2033" data-name="Group 2033" transform="translate(-1988 635.5)">
    <g id="Rollover" transform="translate(1988 -624)">
      <g id="Rectangle_3658" data-name="Rectangle 3658" fill="#fbfbfb" stroke="#ff7212" stroke-width="1">
        <rect width="48" height="48" rx="8" stroke="none"/>
        <rect x="0.5" y="0.5" width="47" height="47" rx="7.5" fill="none"/>
      </g>
      <g id="Group_2017" data-name="Group 2017" transform="translate(-1194 -18)">
        <g id="Path_1369" data-name="Path 1369" transform="translate(1205.546 29.838)" fill="none">
          <path d="M6.155,0H18.464a6.154,6.154,0,0,1,6.155,6.154V18.462a6.154,6.154,0,0,1-6.155,6.154H6.155A6.154,6.154,0,0,1,0,18.462V6.154A6.154,6.154,0,0,1,6.155,0Z" stroke="none"/>
          <path d="M 6.154533386230469 2.150001525878906 C 3.946422576904297 2.150001525878906 2.150003433227539 3.946172714233398 2.150003433227539 6.153963088989258 L 2.150003433227539 18.46188354492188 C 2.150003433227539 20.6696720123291 3.946422576904297 22.46584320068359 6.154533386230469 22.46584320068359 L 18.46359252929688 22.46584320068359 C 20.67170333862305 22.46584320068359 22.4681224822998 20.6696720123291 22.4681224822998 18.46188354492188 L 22.4681224822998 6.153963088989258 C 22.4681224822998 3.946172714233398 20.67170333862305 2.150001525878906 18.46359252929688 2.150001525878906 L 6.154533386230469 2.150001525878906 M 6.154533386230469 1.9073486328125e-06 L 18.46359252929688 1.9073486328125e-06 C 21.86264228820801 1.9073486328125e-06 24.61812210083008 2.755222320556641 24.61812210083008 6.153963088989258 L 24.61812210083008 18.46188354492188 C 24.61812210083008 21.86062240600586 21.86264228820801 24.61584281921387 18.46359252929688 24.61584281921387 L 6.154533386230469 24.61584281921387 C 2.755472183227539 24.61584281921387 3.814697265625e-06 21.86062240600586 3.814697265625e-06 18.46188354492188 L 3.814697265625e-06 6.153963088989258 C 3.814697265625e-06 2.755222320556641 2.755472183227539 1.9073486328125e-06 6.154533386230469 1.9073486328125e-06 Z" stroke="none" fill="#ff7212"/>
        </g>
        <path id="Polígono_4" data-name="Polígono 4" d="M4.99,3.031,3,6.121H6.976L4.99,3.031m0-2.182a1.125,1.125,0,0,1,.953.521l3.025,4.7a1.134,1.134,0,0,1-.953,1.746H1.965a1.134,1.134,0,0,1-.953-1.746l3.025-4.7A1.125,1.125,0,0,1,4.99.849Z" transform="translate(1222.5 34.52) rotate(90)" fill="#ff7212"/>
        <path id="Línea_46" data-name="Línea 46" d="M6.367.5H.124A.573.573,0,0,1-.5,0,.573.573,0,0,1,.124-.5H6.367a.573.573,0,0,1,.624.5A.573.573,0,0,1,6.367.5Z" transform="translate(1211.121 48.75)" fill="#ff7212"/>
        <path id="Línea_48" data-name="Línea 48" d="M1.622.5h-2.5A.573.573,0,0,1-1.5,0,.573.573,0,0,1-.876-.5h2.5a.573.573,0,0,1,.624.5A.573.573,0,0,1,1.622.5Z" transform="translate(1223.359 48.75)" fill="#ff7212"/>
        <path id="Línea_47" data-name="Línea 47" d="M.186,2.75A.859.859,0,0,1-.75,2V0A.859.859,0,0,1,.186-.75.859.859,0,0,1,1.123,0V2A.859.859,0,0,1,.186,2.75Z" transform="translate(1219.799 47.75)" fill="#ff7212"/>
      </g>
    </g>
    <g id="Group_2019" data-name="Group 2019" transform="translate(867 -650)">
      <g transform="matrix(1, 0, 0, 1, 1121, 14.5)" filter="url(#Rectangle_1721)">
        <path id="Rectangle_1721-2" data-name="Rectangle 1721" d="M5,0H65a5,5,0,0,1,5,5V16a5,5,0,0,1-5,5H0a0,0,0,0,1,0,0V5A5,5,0,0,1,5,0Z" transform="translate(26 7.5)" fill="#5f5f5f"/>
      </g>
    </g>
    <g id="Group_2019-2" data-name="Group_2019" transform="translate(867.1 -650.45)">
      <g id="Group_2037" data-name="Group 2037">
        <path id="Path_1370" data-name="Path 1370" d="M1153.2,28.8h1.7l1,6.7h.2l1.5-6.7h1.9l1.5,6.7h.2l1-6.7h1.7l-1.6,8.2h-2.5l-1.3-6.2-1.3,6.2h-2.5Z" fill="#fff"/>
        <path id="Path_1371" data-name="Path 1371" d="M1165,37V28.8h5.3v1.4h-3.6v1.9h2.9v1.4h-2.9v2h3.6V37Z" fill="#fff"/>
        <path id="Path_1372" data-name="Path 1372" d="M1171.7,28.8h3.2a3.312,3.312,0,0,1,1.9.5,2.059,2.059,0,0,1,.6,1.7,3.087,3.087,0,0,1-.2,1.1,1.576,1.576,0,0,1-.7.7,1.853,1.853,0,0,1,.8.7,2.62,2.62,0,0,1-.4,3,2.986,2.986,0,0,1-2,.6h-3.3V28.8Zm3.1,1.5h-1.5v1.9h1.5c.6,0,.9-.3.9-1C1175.8,30.6,1175.4,30.3,1174.8,30.3Zm.1,3.3h-1.5v2h1.5a1.549,1.549,0,0,0,.8-.2c.2-.1.3-.4.3-.8C1175.9,33.9,1175.6,33.6,1174.9,33.6Z" fill="#fff"/>
        <path id="Path_1373" data-name="Path 1373" d="M1179,37V28.8h1.7V37Z" fill="#fff"/>
        <path id="Path_1374" data-name="Path 1374" d="M1182.4,37V28.8h2.8l2,6.7h.1V28.8h1.7V37h-2.7l-2-6.7h-.1V37Z" fill="#fff"/>
        <path id="Path_1375" data-name="Path 1375" d="M1190.1,37l1.8-8.2h3.1l1.8,8.2h-1.7l-.3-1.5h-2.9l-.3,1.5Zm3.1-6.8-.8,3.9h2.2l-.8-3.9h-.6Z" fill="#fff"/>
        <path id="Path_1376" data-name="Path 1376" d="M1199.6,34.3V37h-1.7V28.8h3.2c1.9,0,2.9.9,2.9,2.7a2.73,2.73,0,0,1-1.2,2.4L1204,37h-1.8l-.9-2.7Zm2.4-1.8a1.5,1.5,0,0,0,0-1.8,1.222,1.222,0,0,0-.9-.3h-1.5V33h1.5C1201.6,32.8,1201.9,32.7,1202,32.5Z" fill="#fff"/>
        <path id="Path_1377" data-name="Path 1377" d="M1207.9,30.1c-.9,0-1.3.3-1.3.9a.6.6,0,0,0,.3.6q.3.15,1.5.6a3.8,3.8,0,0,1,1.7.9,2.07,2.07,0,0,1,.5,1.5,2.268,2.268,0,0,1-.8,1.9,3.221,3.221,0,0,1-2,.7,11.151,11.151,0,0,1-2.3-.3l-.4-.1.2-1.3c1.1.1,1.9.2,2.5.2.8,0,1.3-.4,1.3-1.1a.6.6,0,0,0-.3-.6,8.658,8.658,0,0,0-1.2-.5,7.664,7.664,0,0,1-2-.9,2.035,2.035,0,0,1-.6-1.5,2.139,2.139,0,0,1,.7-1.8,3.173,3.173,0,0,1,2-.6c.6,0,1.3.1,2.3.2l.4.1-.1,1.3C1209.2,30.2,1208.4,30.1,1207.9,30.1Z" fill="#fff"/>
      </g>
    </g>
  </g>
</svg>
